<svg width="1440" height="459" viewBox="0 0 1440 459" fill="none" xmlns="http://www.w3.org/2000/svg">
<path d="M1249.5 162H819C962.5 175.667 1249.5 245.1 1249.5 413.5C1277.17 359 1315.9 232.4 1249.5 162Z" fill="#57DEFF"/>
<path d="M663 149.5C692.99 149.098 726.682 149.575 762.79 151.171L1439.5 162.5V458.5C1418.39 234.058 1026.27 162.816 762.79 151.171L663 149.5Z" fill="#4DA6FF"/>
<path d="M1116 404C1027.6 219.6 335.5 170.833 0.5 169.5H1058C1110.8 226.7 1118.67 349.667 1116 404Z" fill="#52C2FF"/>
<path d="M-0.5 81.8841V170.688L1435 167.884V81.8841C1435 81.8841 1034.5 169.13 971.5 81.8841C908.5 -5.36233 699 81.8841 699 81.8841C699 81.8841 613 132.362 469 81.8841C325 31.4058 382 151.058 225 81.8841C68 12.7101 -0.5 81.8841 -0.5 81.8841Z" fill="#52C2FF"/>
<path d="M1435 170.688V81.8841C1435 81.8841 1477 12.7102 1320 81.8841C1163 151.058 1351 -10.6594 1207 39.8188C1063 90.2971 735.5 81.8841 735.5 81.8841C735.5 81.8841 385 53.8406 322 141.087C309.47 158.44 289.166 166.548 264.677 168.402L239.921 168.354C140.554 161.488 -0.500122 81.8841 -0.500122 81.8841V167.884L239.921 168.354C248.525 168.948 256.817 168.997 264.677 168.402L1435 170.688Z" fill="#57DEFF"/>
<path d="M1126 171.065H1440.5V0C1429.33 5.6087 1444.4 39.1362 1382 86C1304 144.58 1286 129.935 1190.5 98.1522C1095 66.3696 1141.5 83.5073 1028.5 110.304C938.1 131.742 947.833 159.744 964 171.065H1126Z" fill="#52C2FF"/>
<path d="M-4 85.2155V174L1440 171.196V85.2155C1440 85.2155 1108.15 179.096 1044.78 91.8689C981.404 4.64207 711.818 91.869 711.818 91.869C711.818 91.869 613.133 135.682 468.28 85.2155C323.427 34.7485 497.045 193.693 339.116 124.535C181.186 55.3763 -4 85.2155 -4 85.2155Z" fill="#4DA6FF"/>
<path d="M-7 88.1304V173.819H1058C1061.5 176.312 1063.4 175.377 1043 151.696C1017.5 122.094 922 162.913 782.5 151.696C643 140.478 692.5 147.022 620.5 100.283C548.5 53.5435 472.5 137.674 328.5 151.696C184.5 165.717 258.5 36.7174 164 88.1304C88.4 129.261 18.5 105.268 -7 88.1304Z" fill="#52C2FF"/>
</svg>
